<mxfile host="app.diagrams.net" modified="2022-11-01T13:24:52.687Z" agent="5.0 (Windows NT 10.0; Win64; x64) AppleWebKit/537.36 (KHTML, like Gecko) Chrome/107.0.0.0 Safari/537.36 Edg/107.0.1418.26" etag="aKD17bYagwBhW_e3X3G7" version="20.5.1" type="github" pages="2">
  <diagram id="vVnG-Qb8M732w263jlog" name="第 1 页">
    <mxGraphModel dx="1550" dy="859" grid="1" gridSize="10" guides="1" tooltips="1" connect="1" arrows="1" fold="1" page="1" pageScale="1" pageWidth="827" pageHeight="1169" math="0" shadow="0">
      <root>
        <mxCell id="0" />
        <mxCell id="1" parent="0" />
        <mxCell id="C6RGOmksycfrHnxEXSs6-41" value="ConcreteMediator" style="swimlane;fontStyle=1;align=center;verticalAlign=top;childLayout=stackLayout;horizontal=1;startSize=26;horizontalStack=0;resizeParent=1;resizeParentMax=0;resizeLast=0;collapsible=1;marginBottom=0;" vertex="1" parent="1">
          <mxGeometry x="330" y="610" width="160" height="242" as="geometry" />
        </mxCell>
        <mxCell id="C6RGOmksycfrHnxEXSs6-42" value="- a: ComponentA" style="text;strokeColor=none;fillColor=none;align=left;verticalAlign=top;spacingLeft=4;spacingRight=4;overflow=hidden;rotatable=0;points=[[0,0.5],[1,0.5]];portConstraint=eastwest;" vertex="1" parent="C6RGOmksycfrHnxEXSs6-41">
          <mxGeometry y="26" width="160" height="26" as="geometry" />
        </mxCell>
        <mxCell id="HtEzQ6ZAns_NE-H4naCo-3" value="- b: ComponentB" style="text;strokeColor=none;fillColor=none;align=left;verticalAlign=top;spacingLeft=4;spacingRight=4;overflow=hidden;rotatable=0;points=[[0,0.5],[1,0.5]];portConstraint=eastwest;" vertex="1" parent="C6RGOmksycfrHnxEXSs6-41">
          <mxGeometry y="52" width="160" height="26" as="geometry" />
        </mxCell>
        <mxCell id="HtEzQ6ZAns_NE-H4naCo-2" value="- c: ComponentC" style="text;strokeColor=none;fillColor=none;align=left;verticalAlign=top;spacingLeft=4;spacingRight=4;overflow=hidden;rotatable=0;points=[[0,0.5],[1,0.5]];portConstraint=eastwest;" vertex="1" parent="C6RGOmksycfrHnxEXSs6-41">
          <mxGeometry y="78" width="160" height="26" as="geometry" />
        </mxCell>
        <mxCell id="HtEzQ6ZAns_NE-H4naCo-1" value="- d: ComponentD" style="text;strokeColor=none;fillColor=none;align=left;verticalAlign=top;spacingLeft=4;spacingRight=4;overflow=hidden;rotatable=0;points=[[0,0.5],[1,0.5]];portConstraint=eastwest;" vertex="1" parent="C6RGOmksycfrHnxEXSs6-41">
          <mxGeometry y="104" width="160" height="26" as="geometry" />
        </mxCell>
        <mxCell id="C6RGOmksycfrHnxEXSs6-43" value="" style="line;strokeWidth=1;fillColor=none;align=left;verticalAlign=middle;spacingTop=-1;spacingLeft=3;spacingRight=3;rotatable=0;labelPosition=right;points=[];portConstraint=eastwest;strokeColor=inherit;" vertex="1" parent="C6RGOmksycfrHnxEXSs6-41">
          <mxGeometry y="130" width="160" height="8" as="geometry" />
        </mxCell>
        <mxCell id="HtEzQ6ZAns_NE-H4naCo-4" value="+ method1()" style="text;strokeColor=none;fillColor=none;align=left;verticalAlign=top;spacingLeft=4;spacingRight=4;overflow=hidden;rotatable=0;points=[[0,0.5],[1,0.5]];portConstraint=eastwest;" vertex="1" parent="C6RGOmksycfrHnxEXSs6-41">
          <mxGeometry y="138" width="160" height="26" as="geometry" />
        </mxCell>
        <mxCell id="HtEzQ6ZAns_NE-H4naCo-5" value="+ method2()" style="text;strokeColor=none;fillColor=none;align=left;verticalAlign=top;spacingLeft=4;spacingRight=4;overflow=hidden;rotatable=0;points=[[0,0.5],[1,0.5]];portConstraint=eastwest;" vertex="1" parent="C6RGOmksycfrHnxEXSs6-41">
          <mxGeometry y="164" width="160" height="26" as="geometry" />
        </mxCell>
        <mxCell id="HtEzQ6ZAns_NE-H4naCo-6" value="+ method3()" style="text;strokeColor=none;fillColor=none;align=left;verticalAlign=top;spacingLeft=4;spacingRight=4;overflow=hidden;rotatable=0;points=[[0,0.5],[1,0.5]];portConstraint=eastwest;" vertex="1" parent="C6RGOmksycfrHnxEXSs6-41">
          <mxGeometry y="190" width="160" height="26" as="geometry" />
        </mxCell>
        <mxCell id="C6RGOmksycfrHnxEXSs6-44" value="+ method4()" style="text;strokeColor=none;fillColor=none;align=left;verticalAlign=top;spacingLeft=4;spacingRight=4;overflow=hidden;rotatable=0;points=[[0,0.5],[1,0.5]];portConstraint=eastwest;" vertex="1" parent="C6RGOmksycfrHnxEXSs6-41">
          <mxGeometry y="216" width="160" height="26" as="geometry" />
        </mxCell>
        <mxCell id="C6RGOmksycfrHnxEXSs6-45" value="ComponentA" style="swimlane;fontStyle=1;align=center;verticalAlign=top;childLayout=stackLayout;horizontal=1;startSize=26;horizontalStack=0;resizeParent=1;resizeParentMax=0;resizeLast=0;collapsible=1;marginBottom=0;" vertex="1" parent="1">
          <mxGeometry x="58" y="343" width="160" height="86" as="geometry" />
        </mxCell>
        <mxCell id="C6RGOmksycfrHnxEXSs6-46" value="- m: Mediator" style="text;strokeColor=none;fillColor=none;align=left;verticalAlign=top;spacingLeft=4;spacingRight=4;overflow=hidden;rotatable=0;points=[[0,0.5],[1,0.5]];portConstraint=eastwest;" vertex="1" parent="C6RGOmksycfrHnxEXSs6-45">
          <mxGeometry y="26" width="160" height="26" as="geometry" />
        </mxCell>
        <mxCell id="C6RGOmksycfrHnxEXSs6-47" value="" style="line;strokeWidth=1;fillColor=none;align=left;verticalAlign=middle;spacingTop=-1;spacingLeft=3;spacingRight=3;rotatable=0;labelPosition=right;points=[];portConstraint=eastwest;strokeColor=inherit;" vertex="1" parent="C6RGOmksycfrHnxEXSs6-45">
          <mxGeometry y="52" width="160" height="8" as="geometry" />
        </mxCell>
        <mxCell id="C6RGOmksycfrHnxEXSs6-48" value="+ operationA()" style="text;strokeColor=none;fillColor=none;align=left;verticalAlign=top;spacingLeft=4;spacingRight=4;overflow=hidden;rotatable=0;points=[[0,0.5],[1,0.5]];portConstraint=eastwest;" vertex="1" parent="C6RGOmksycfrHnxEXSs6-45">
          <mxGeometry y="60" width="160" height="26" as="geometry" />
        </mxCell>
        <mxCell id="C6RGOmksycfrHnxEXSs6-49" value="ComponentB" style="swimlane;fontStyle=1;align=center;verticalAlign=top;childLayout=stackLayout;horizontal=1;startSize=26;horizontalStack=0;resizeParent=1;resizeParentMax=0;resizeLast=0;collapsible=1;marginBottom=0;" vertex="1" parent="1">
          <mxGeometry x="58" y="513" width="160" height="86" as="geometry" />
        </mxCell>
        <mxCell id="C6RGOmksycfrHnxEXSs6-50" value="- m: Mediator" style="text;strokeColor=none;fillColor=none;align=left;verticalAlign=top;spacingLeft=4;spacingRight=4;overflow=hidden;rotatable=0;points=[[0,0.5],[1,0.5]];portConstraint=eastwest;" vertex="1" parent="C6RGOmksycfrHnxEXSs6-49">
          <mxGeometry y="26" width="160" height="26" as="geometry" />
        </mxCell>
        <mxCell id="C6RGOmksycfrHnxEXSs6-51" value="" style="line;strokeWidth=1;fillColor=none;align=left;verticalAlign=middle;spacingTop=-1;spacingLeft=3;spacingRight=3;rotatable=0;labelPosition=right;points=[];portConstraint=eastwest;strokeColor=inherit;" vertex="1" parent="C6RGOmksycfrHnxEXSs6-49">
          <mxGeometry y="52" width="160" height="8" as="geometry" />
        </mxCell>
        <mxCell id="C6RGOmksycfrHnxEXSs6-52" value="+ operationB()" style="text;strokeColor=none;fillColor=none;align=left;verticalAlign=top;spacingLeft=4;spacingRight=4;overflow=hidden;rotatable=0;points=[[0,0.5],[1,0.5]];portConstraint=eastwest;" vertex="1" parent="C6RGOmksycfrHnxEXSs6-49">
          <mxGeometry y="60" width="160" height="26" as="geometry" />
        </mxCell>
        <mxCell id="C6RGOmksycfrHnxEXSs6-53" value="ComponentC" style="swimlane;fontStyle=1;align=center;verticalAlign=top;childLayout=stackLayout;horizontal=1;startSize=26;horizontalStack=0;resizeParent=1;resizeParentMax=0;resizeLast=0;collapsible=1;marginBottom=0;" vertex="1" parent="1">
          <mxGeometry x="607" y="350" width="160" height="86" as="geometry" />
        </mxCell>
        <mxCell id="C6RGOmksycfrHnxEXSs6-54" value="- m: Mediator" style="text;strokeColor=none;fillColor=none;align=left;verticalAlign=top;spacingLeft=4;spacingRight=4;overflow=hidden;rotatable=0;points=[[0,0.5],[1,0.5]];portConstraint=eastwest;" vertex="1" parent="C6RGOmksycfrHnxEXSs6-53">
          <mxGeometry y="26" width="160" height="26" as="geometry" />
        </mxCell>
        <mxCell id="C6RGOmksycfrHnxEXSs6-55" value="" style="line;strokeWidth=1;fillColor=none;align=left;verticalAlign=middle;spacingTop=-1;spacingLeft=3;spacingRight=3;rotatable=0;labelPosition=right;points=[];portConstraint=eastwest;strokeColor=inherit;" vertex="1" parent="C6RGOmksycfrHnxEXSs6-53">
          <mxGeometry y="52" width="160" height="8" as="geometry" />
        </mxCell>
        <mxCell id="C6RGOmksycfrHnxEXSs6-56" value="+ operationC()" style="text;strokeColor=none;fillColor=none;align=left;verticalAlign=top;spacingLeft=4;spacingRight=4;overflow=hidden;rotatable=0;points=[[0,0.5],[1,0.5]];portConstraint=eastwest;" vertex="1" parent="C6RGOmksycfrHnxEXSs6-53">
          <mxGeometry y="60" width="160" height="26" as="geometry" />
        </mxCell>
        <mxCell id="C6RGOmksycfrHnxEXSs6-57" value="ComponentD" style="swimlane;fontStyle=1;align=center;verticalAlign=top;childLayout=stackLayout;horizontal=1;startSize=26;horizontalStack=0;resizeParent=1;resizeParentMax=0;resizeLast=0;collapsible=1;marginBottom=0;" vertex="1" parent="1">
          <mxGeometry x="607" y="499" width="160" height="86" as="geometry" />
        </mxCell>
        <mxCell id="C6RGOmksycfrHnxEXSs6-58" value="- m: Mediator" style="text;strokeColor=none;fillColor=none;align=left;verticalAlign=top;spacingLeft=4;spacingRight=4;overflow=hidden;rotatable=0;points=[[0,0.5],[1,0.5]];portConstraint=eastwest;" vertex="1" parent="C6RGOmksycfrHnxEXSs6-57">
          <mxGeometry y="26" width="160" height="26" as="geometry" />
        </mxCell>
        <mxCell id="C6RGOmksycfrHnxEXSs6-59" value="" style="line;strokeWidth=1;fillColor=none;align=left;verticalAlign=middle;spacingTop=-1;spacingLeft=3;spacingRight=3;rotatable=0;labelPosition=right;points=[];portConstraint=eastwest;strokeColor=inherit;" vertex="1" parent="C6RGOmksycfrHnxEXSs6-57">
          <mxGeometry y="52" width="160" height="8" as="geometry" />
        </mxCell>
        <mxCell id="C6RGOmksycfrHnxEXSs6-60" value="+ operationD()" style="text;strokeColor=none;fillColor=none;align=left;verticalAlign=top;spacingLeft=4;spacingRight=4;overflow=hidden;rotatable=0;points=[[0,0.5],[1,0.5]];portConstraint=eastwest;" vertex="1" parent="C6RGOmksycfrHnxEXSs6-57">
          <mxGeometry y="60" width="160" height="26" as="geometry" />
        </mxCell>
        <mxCell id="C6RGOmksycfrHnxEXSs6-61" value="&lt;p style=&quot;margin:0px;margin-top:4px;text-align:center;&quot;&gt;&lt;i&gt;&amp;lt;&amp;lt;Interface&amp;gt;&amp;gt;&lt;/i&gt;&lt;br&gt;&lt;b&gt;Mediator&lt;/b&gt;&lt;/p&gt;&lt;hr size=&quot;1&quot;&gt;&lt;p style=&quot;margin:0px;margin-left:4px;&quot;&gt;&lt;/p&gt;&lt;p style=&quot;margin:0px;margin-left:4px;&quot;&gt;+ method1()&lt;/p&gt;&lt;p style=&quot;margin: 0px 0px 0px 4px;&quot;&gt;&lt;/p&gt;&lt;p style=&quot;margin: 0px 0px 0px 4px;&quot;&gt;+ method2()&lt;/p&gt;&lt;p style=&quot;margin: 0px 0px 0px 4px;&quot;&gt;&lt;/p&gt;&lt;p style=&quot;margin: 0px 0px 0px 4px;&quot;&gt;+ method3()&lt;/p&gt;&lt;p style=&quot;margin: 0px 0px 0px 4px;&quot;&gt;+ method4()&lt;br&gt;&lt;/p&gt;" style="verticalAlign=top;align=left;overflow=fill;fontSize=12;fontFamily=Helvetica;html=1;" vertex="1" parent="1">
          <mxGeometry x="315" y="411" width="190" height="114" as="geometry" />
        </mxCell>
        <mxCell id="HtEzQ6ZAns_NE-H4naCo-7" value="" style="endArrow=block;dashed=1;endFill=0;endSize=12;html=1;rounded=0;exitX=0.5;exitY=0;exitDx=0;exitDy=0;entryX=0.5;entryY=1;entryDx=0;entryDy=0;" edge="1" parent="1" source="C6RGOmksycfrHnxEXSs6-41" target="C6RGOmksycfrHnxEXSs6-61">
          <mxGeometry width="160" relative="1" as="geometry">
            <mxPoint x="368" y="580" as="sourcePoint" />
            <mxPoint x="528" y="580" as="targetPoint" />
          </mxGeometry>
        </mxCell>
        <mxCell id="HtEzQ6ZAns_NE-H4naCo-8" value="" style="endArrow=open;endFill=1;endSize=12;html=1;rounded=0;exitX=1.025;exitY=0.846;exitDx=0;exitDy=0;exitPerimeter=0;entryX=0;entryY=0.5;entryDx=0;entryDy=0;" edge="1" parent="1" source="C6RGOmksycfrHnxEXSs6-46" target="C6RGOmksycfrHnxEXSs6-61">
          <mxGeometry width="160" relative="1" as="geometry">
            <mxPoint x="228" y="380" as="sourcePoint" />
            <mxPoint x="388" y="380" as="targetPoint" />
            <Array as="points">
              <mxPoint x="238" y="391" />
              <mxPoint x="238" y="470" />
            </Array>
          </mxGeometry>
        </mxCell>
        <mxCell id="HtEzQ6ZAns_NE-H4naCo-9" value="" style="endArrow=open;endFill=1;endSize=12;html=1;rounded=0;exitX=1;exitY=0.5;exitDx=0;exitDy=0;entryX=0;entryY=0.5;entryDx=0;entryDy=0;" edge="1" parent="1" source="C6RGOmksycfrHnxEXSs6-50" target="C6RGOmksycfrHnxEXSs6-61">
          <mxGeometry width="160" relative="1" as="geometry">
            <mxPoint x="232" y="400.9960000000001" as="sourcePoint" />
            <mxPoint x="323" y="481" as="targetPoint" />
            <Array as="points">
              <mxPoint x="238" y="552" />
              <mxPoint x="238" y="471" />
            </Array>
          </mxGeometry>
        </mxCell>
        <mxCell id="HtEzQ6ZAns_NE-H4naCo-10" value="" style="endArrow=open;endFill=1;endSize=12;html=1;rounded=0;entryX=1;entryY=0.5;entryDx=0;entryDy=0;" edge="1" parent="1" source="C6RGOmksycfrHnxEXSs6-54" target="C6RGOmksycfrHnxEXSs6-61">
          <mxGeometry width="160" relative="1" as="geometry">
            <mxPoint x="478" y="411" as="sourcePoint" />
            <mxPoint x="573" y="330" as="targetPoint" />
            <Array as="points">
              <mxPoint x="578" y="390" />
              <mxPoint x="578" y="470" />
            </Array>
          </mxGeometry>
        </mxCell>
        <mxCell id="HtEzQ6ZAns_NE-H4naCo-11" value="" style="endArrow=open;endFill=1;endSize=12;html=1;rounded=0;entryX=1;entryY=0.5;entryDx=0;entryDy=0;" edge="1" parent="1" source="C6RGOmksycfrHnxEXSs6-58" target="C6RGOmksycfrHnxEXSs6-61">
          <mxGeometry width="160" relative="1" as="geometry">
            <mxPoint x="588" y="392" as="sourcePoint" />
            <mxPoint x="518" y="510" as="targetPoint" />
            <Array as="points">
              <mxPoint x="578" y="540" />
              <mxPoint x="578" y="470" />
            </Array>
          </mxGeometry>
        </mxCell>
        <mxCell id="HtEzQ6ZAns_NE-H4naCo-12" value="" style="endArrow=diamondThin;endFill=0;endSize=24;html=1;rounded=0;exitX=0;exitY=0.5;exitDx=0;exitDy=0;" edge="1" parent="1" source="C6RGOmksycfrHnxEXSs6-46">
          <mxGeometry width="160" relative="1" as="geometry">
            <mxPoint x="170" y="750" as="sourcePoint" />
            <mxPoint x="330" y="750" as="targetPoint" />
            <Array as="points">
              <mxPoint x="28" y="382" />
              <mxPoint x="28" y="750" />
            </Array>
          </mxGeometry>
        </mxCell>
        <mxCell id="hc3rSs4WmCMnNwnUI1CZ-1" value="" style="endArrow=diamondThin;endFill=0;endSize=24;html=1;rounded=0;exitX=0;exitY=0.5;exitDx=0;exitDy=0;" edge="1" parent="1" source="C6RGOmksycfrHnxEXSs6-50">
          <mxGeometry width="160" relative="1" as="geometry">
            <mxPoint x="68" y="392" as="sourcePoint" />
            <mxPoint x="328" y="750" as="targetPoint" />
            <Array as="points">
              <mxPoint x="28" y="552" />
              <mxPoint x="28" y="750" />
            </Array>
          </mxGeometry>
        </mxCell>
        <mxCell id="hc3rSs4WmCMnNwnUI1CZ-2" value="" style="endArrow=diamondThin;endFill=0;endSize=24;html=1;rounded=0;entryX=1;entryY=0.5;entryDx=0;entryDy=0;exitX=1;exitY=0.5;exitDx=0;exitDy=0;" edge="1" parent="1" source="C6RGOmksycfrHnxEXSs6-54" target="HtEzQ6ZAns_NE-H4naCo-4">
          <mxGeometry width="160" relative="1" as="geometry">
            <mxPoint x="620" y="740" as="sourcePoint" />
            <mxPoint x="780" y="740" as="targetPoint" />
            <Array as="points">
              <mxPoint x="800" y="390" />
              <mxPoint x="800" y="761" />
            </Array>
          </mxGeometry>
        </mxCell>
        <mxCell id="hc3rSs4WmCMnNwnUI1CZ-3" value="" style="endArrow=diamondThin;endFill=0;endSize=24;html=1;rounded=0;exitX=1;exitY=0.5;exitDx=0;exitDy=0;" edge="1" parent="1" source="C6RGOmksycfrHnxEXSs6-58">
          <mxGeometry width="160" relative="1" as="geometry">
            <mxPoint x="480" y="880" as="sourcePoint" />
            <mxPoint x="490" y="760" as="targetPoint" />
            <Array as="points">
              <mxPoint x="800" y="538" />
              <mxPoint x="800" y="760" />
            </Array>
          </mxGeometry>
        </mxCell>
        <mxCell id="hc3rSs4WmCMnNwnUI1CZ-5" value="" style="endArrow=none;dashed=1;html=1;dashPattern=1 3;strokeWidth=2;rounded=0;entryX=0;entryY=0.5;entryDx=0;entryDy=0;exitX=0;exitY=0;exitDx=131;exitDy=0;exitPerimeter=0;" edge="1" parent="1" source="hc3rSs4WmCMnNwnUI1CZ-6" target="C6RGOmksycfrHnxEXSs6-44">
          <mxGeometry width="50" height="50" relative="1" as="geometry">
            <mxPoint x="270" y="890" as="sourcePoint" />
            <mxPoint x="290" y="860" as="targetPoint" />
          </mxGeometry>
        </mxCell>
        <mxCell id="hc3rSs4WmCMnNwnUI1CZ-6" value="c.operationD()" style="shape=note;whiteSpace=wrap;html=1;backgroundOutline=1;darkOpacity=0.05;fillColor=#6d8764;fontColor=#ffffff;strokeColor=#3A5431;align=left;" vertex="1" parent="1">
          <mxGeometry x="163" y="852" width="152" height="50" as="geometry" />
        </mxCell>
        <mxCell id="hc3rSs4WmCMnNwnUI1CZ-7" value="m.method4()" style="shape=note;whiteSpace=wrap;html=1;backgroundOutline=1;darkOpacity=0.05;fillColor=#6d8764;fontColor=#ffffff;strokeColor=#3A5431;align=left;" vertex="1" parent="1">
          <mxGeometry x="130" y="630" width="130" height="55" as="geometry" />
        </mxCell>
        <mxCell id="hc3rSs4WmCMnNwnUI1CZ-8" value="" style="endArrow=none;dashed=1;html=1;dashPattern=1 3;strokeWidth=2;rounded=0;exitX=0;exitY=0.5;exitDx=0;exitDy=0;exitPerimeter=0;entryX=0.29;entryY=1.092;entryDx=0;entryDy=0;entryPerimeter=0;" edge="1" parent="1" source="hc3rSs4WmCMnNwnUI1CZ-7" target="C6RGOmksycfrHnxEXSs6-52">
          <mxGeometry width="50" height="50" relative="1" as="geometry">
            <mxPoint x="110" y="670" as="sourcePoint" />
            <mxPoint x="160" y="620" as="targetPoint" />
          </mxGeometry>
        </mxCell>
      </root>
    </mxGraphModel>
  </diagram>
  <diagram id="Isxl61BjQNMxQYGaXVTL" name="案例的结构">
    <mxGraphModel dx="1550" dy="859" grid="1" gridSize="10" guides="1" tooltips="1" connect="1" arrows="1" fold="1" page="1" pageScale="1" pageWidth="827" pageHeight="1169" math="0" shadow="0">
      <root>
        <mxCell id="0" />
        <mxCell id="1" parent="0" />
        <mxCell id="p6balrrYnWegdUMxcBBJ-1" value="" style="shape=image;verticalLabelPosition=bottom;labelBackgroundColor=default;verticalAlign=top;aspect=fixed;imageAspect=0;image=data:image/png,iVBORw0KGgoAAAANSUhEUgAAAggAAAGuCAMAAADCjw4/AAAArlBMVEVHcExcXFxISEhISEhJSUl5eXnk5OT39/fy8vLY2NjNzc3d3d319fXu7u7r6+uWlpZMTEx+fn6MjIynp6dubm5PT0+xsbHDw8NhYWFcXFxTU1NXV1e5ubm1tbVmZmbT09NpaWl0dHSFhYXJyclra2uRkZHo6OiioqKamprAwMCdnZ3h4eGsrKy9vb1cXFxlZWVmZmZkZGRlZWVmZmZlZWVlZWV4eHjCwsLCwsLDw8P7+RTMAAAAOnRSTlMAIabp////////////////////////////////////////////////////////CqLzRL/fgGMWtbTUgRLvbAAALZFJREFUeAHs0gUVA0AMwNBy/TuehPFhvoS8CAAAAAAAAPAXah5juKmsipLqMY4vewIlLbJ6jMowWRQlPapHqXBZFCUjepwIWRQlGYGSjEBJRmAERngVIzACIzzYOxP1xJFlCV9/X0BoRytoAQESmwHb7fX9H+26EKW2ZXoww7iO2yjPJorjIQj9VBVImanphmnxvwq7a/9AENQ76Zi66agEwe65ADz+V+HD//EgKHAygIhQVwaCFQKI0OO50fcGOzciRPaPA0G9kwHcOAFSSxUIAeA7dLo8NzIMSXIIYPTjQFDvZICcDICxKhAmmFTQGdM07YzJIiyn0cycZ5FvsZgOczcfkAs/iSZ98azRiZI+aQW5m81tOWCFLuLQIDuIMb1IEKST0qsjTvbD0etRof3ByR0IQ8BUBIIVYUkRY8AFXJMxRLgAUIoHEeB2rXw3FMhnu1wBCeDXAxBxzS4QAN0LBKF2Unp1xMk1dtH/g5MBktEqwpyKQNjIibxA3DUTzBmjY8+B626KrXhgGUD/BhjYHjLGCBcDoNRcLHmDpB6wM4xsiwFiK8PyAkGonZReHXFyjchYJJj/wckAIpIbVSBoLgKKyAV8BaaMseUQETnDeveACdZLZBavgYUYsFxcm8BkGsKlHNjvEXIU5RTxBYJQO1l79c9OrjEVhhd/cFLMCNsOUCoCgfF+ZcuxJH2EOz0DIX+6l29FCNbIyQHQFQOMcK0DXlEUPVYDUv4YVYwvD4Taydqrf3ZyB4KP4pCTcrNoReipAmEF+F0uxh5CzY7hfwRhAFwPAdOaI6rV2hAHjvZW/pLWHMl8Pk8xv0AQpJPSqyNOShD+4OQOhBIIVIFgxwAiTEsgToFxU340AWLLTpDGwOq32gKYdKL+74EO3GRUbQ98pNrlgSCdlF4dcVKCcNjJYQA3T4B0owoELnwXwJT9CEiHZIz+W/kAJiap5wDmtni2Uut4AJL+74FhCviAEG4A15cHgnRSenXESQnCYSeDAABcT1d7rUF3SFqmabERMYJxl7vo6jbfhVM9U4c9di75opN0Unp1rpPOxtxo3+bqY4xte/XxmzrZylcfLQjmePFzQWidbG9MaZ1sQTgcLQgtCC0ILQgtCAoTtb4vCK2TUJm6+X1BaJ2Eyvi2ILROtiDIaEFol4bWyXaz2DrZfn1snWxBaEFoQWhBaEFoQWhBaEFoQWhBOBhXt/9CvmXVBweecawWhP+9k7dXp6m9+3V3f7L8fmRWYmedpp6AC7doQfhfO3n/el5PU/uQ5/nj09WJ8lHJ3uKAfNvbso7rVQuCcievnh7zPH84Ta38q+fbk+RjSHKRHpL/LopZC4JaJ2+f5Wf7pJDzSJ7LJaIh3wyvw2ii9xLXs0lvalXyw8wh/UxMaPY8cfMbUltO0ljIn27JYJpkHZPT1J2E5CiP4pVGM9wmsXVBIKh3sj6Vp0cTo4b8MaJg9CpitMSWnOZ7+Ybr08Ao7JBFtB6Grkkf3jAQ8tMe6a+Hy8jjaJJs+7xBOFphzjGydZ+XAoJ6J+vJ/YRtQR2/8nfx8FzJt3RdNyv5W9KHTiZzyuhDW8GYTRl22EWPNDBciP+llC/Cy/cTWphapO9qY4wub2lQ5qT4LP/pzB7eMeSfAMEEkFXyS3IdkcyLt/K1OHF1Id9AGscJ+gYGb+Q7/dU8nuzlZx7JEcwxyssDQYmTx0HID4JwfGmwNptN9738yTv5NLCikF8iKF9jUaL8Lb+bZP46D6V8n+QW+kWCoMLJ40vDcRCObBb/LJ9Deyd/gyUr8gPSxHInv48x6Qn5OckwJ+nBvkgQ1DopT+XJIDQwOiZ/XtTyRQj5nEZbfTC3rDy9LsO9/BsU5QohuXbLgd2Hb/Sigi0ICpysJ/cTQWj81RH5cap9kN+dAug4HCeA58/JrEerACbLjDRSRIa1cgHPaUFQ46T8bJ8Awsk/MTvOwVHTrlZDh5bGKuxFdWzvntNMu/1BSZWT8ifm00C4um2vPv7Iq4+3V6duFi8AhPYydAtCC0ILQgtCC0ILwo8F4XifZfVdmFsQVIMg+yx/DxSuLgAE9Ylayvosq+/CrNTJLwBBbeqmsj7L6rswK3XyC0BQG+qnWWXLGdTGXw2CG/1gECIXKuOvXhri/PHp/keCcP/0mMcKnfzLN4tpnMvL5z8GBHlXQB6nf/lmUamp4pOzY+G2+YXxLwFB6pRxu6NAzHQnam5/R7g6xMJ9fvdXgHCX3x+i4Op0zS0IOxYediw81yw8/8ofXv6NqgWPhNa1/jPLXx7yX881Bc87Ch52FLQg/Dv5koX84Xl/+u8f88f701X1ccN/jMBFZp2vuanx5VnIlxS0IJwl/+q5ZqH6tOXPJ6sypmPWYfoLNsKOvPLmXM3NWetFCr8628kWhAMfrKc8v7s9R9UNNmyEiZv/SPPt3au85lTWgnB0jdY17sJ2uk35H3Is5FIrP3KfUnVtcKhzPNFphoMwygIGCeKJQb2TRh2zyhe8iZFMhqWXp7kAYpS7UVHnHG4X2tL+lOVyeyA3N5ICBU46G9NpOqkUhDPXaDsachfzWaQfkS9ZeHx6lovwcVVm1Bu7AUuMOYa76ucwDR/L7cZJ822QhVW+oL6Gv9WH/qg/iWzeYDYabmXOoR1Pu5lnHQdBbg+enx4rCm7VOekBwGwsnfyWIFyv5Bp9IEboUMQAg9nEOipffhET/3n+jCptli/iqbUHISAHuKmWhi0MsifzBU3ZbHAInWFkkXXOIfVoXrrLT4HwLLTJL70qnezEhhFEmSWdVADCNuCxOCGDP0yxIfepXYPPyJcsiI3CcVN7menHXe5BKMku+hUIc8RxnMLZjVYgWIP1vAOzSiWscw6Ft8MRyuMgiO2BpECxk52Q5BqmdFIBCIVHGXVW/jCP5Nqa9ax9mv67DH6xRotVOfPEh7G3jt3cqNK4sCap45qMvSPy75+fnp7u7u4eHvapuVdHQei7N8uofAOCXYMQlSKsNyAUrrcqsGHqk6xzDkk/Nb1scRSEKynr4VXjq9LnK2VOViD4riOdVArC76z8NLiZwOQNiuEcQbXsvs/gFyfCSZNlP0s0rhBv1+mE5CqyO4lFBq5G9iLrn+U/NfJ6fz244JHwI93Luk0QTDKASRG/QXCwIofochJbZJ1zyBsMtyh5JOA+/GpkGj+pc7KT64bvbptOfhkI/SyLkGUB+TYrX2ZnholFJh7FstvI4Bfyd24OMOTKNcUfWrQyn0MxWggqhjCPzAi7z9nz/f391dXL7efWW3sydWL/PQg61mO9G+UDvd9/A4Lm5oNRhi4DFEa5rnMOE9+OVp/81nD7cnX1qu95N3fdq3OyAwD5oOnkl4FgDofhZDjUyQ9Z+emcmRvHsdupvK0z+Gv5c9cmNSy5Sklu4fAa68G1W5DTDkkDxlH5p2+8Nl2aznsQrAmw4iABomUNwoAcRUj7kUHNd4HQljmHps2xdsY3dhVOdkJ7Uc7cce2ksqWhmZW/QI9pp3wNvZIvM/jfyBequ1hX8vtw6MF1XbgOQ28nvzwDhJPCXFBo2VgfrzdoljjQHZlzeMZPN+qcrPYIOpa1k8pAaGbljzBiOLHqZbeRwS/kB9DJIUa1/IUb7GvHeCHJAXRW8QNuVVPppAShRL928utBsG0p/3dWfk8fJIkmBsbjnrmT38jgF/K70aTsx5ldyw/cLknmk2p3s4y0nwKCaifZiY1ymyWL2kmVPyj9zsoHMDP3A7Gxk9/I4BfyOciAxCDXQv4ITt6hiAD6AAbZmfKngKDaSXYAuIVJSidVgiCz8se41hdyQBwczOCXO7eDYWdzdjH6MSAod9JabLpW00nVPzELbM+NdbSZZ9rlgqDeyW8Kgp1PMWALgjonvwAEbWzz7NDLG14iCOqd/P43prQgfLWqFgTLsuqDj8843RaECwEhQLogSSuHz3cRIjAjXLcgXAoIFQBbNEGYITBdjCjD8OctCGckoCtKMT8DBBikkx4CgYsN65jD+2IQ1Dt5PgjqS1LIohNfAMLMYg8CBCvI3Wxuk8Y0S10EDMMxg2mcxgFXGdJwyYWfRJM+WYTDPLbOB+G7OnkcBJVFahSUoQmQA33TdUP4XAGJAGIMIAUCCyhZIIuAgQcAhZUDLhAwBhDzfBC+q5PHQVBZtkpBYaoAMx+Jj3kIX3Ox5A0SFkhMK9+DsFnQzrHUfHi2dgMMbA8ZY4S6eT4I39bJ4yB80zgDBCcDMieEbwKTaQiXE/jkbA/CYulNU6yrPcISmcVrYBFj+8NKArYgcAiMGMLXAa8oih5jrGoQnASxnyCoQFgjJwdA9weC0IJAb0oBgg1sSUfjFKHtpFgKEG6AhZ1jyzkmtIaAac0R8SeC0IJA7kBgAUw6UZ9bIMuAtQDBAJIUWHIEJIWdII2B1c8DoQUhlCDM6XgAkj61AoiW8AUInANhgILdGAip5wDmNmP0WxB+cF1jZ9yliIVu1W24bYfVsb6xSHZ1mzJaENoC138xCC0ILQgtCC0ILQgtCC0ILQgtCN+oOnsLwv8w8I36NbQg/A8D3ylaEFoQWhAURbs0tCC0m8UWhPbrYwtCC0ILQgtCC0ILQgtCC4KCaG9nVw/Ct3SyTXAhNedDv57usQxqvouF9dcnuLQpb2QntRv9espowX8KBO+5SIK/O+WtTYJd3ZBcFtr7fj124vMUEBi4epsE++3T4rfB0TPa6NezjRangWBJctr6CH9FFdO6cr09T6LZNccTJJM1lx53/XrmkzHJzppxQepeFIWbumePN/KyyHNIbTlJYwSNavlr1/l7QGhBqCvXF64/nMLobuFtS84T7vr1lK5PmhhuMCS9ZHjds2XPHsbwRgWWpA9vGCBoVMs3MGhB+MYgNErey8r1XfiknXr7OX6eyO4ckc1lZN/AJMPceduzJw4tWmnBhRgggka1fM1dtiAoln9GyXtZud7AiKSXN0Ew0Oes4BY2OXTT+eZ3z57YJxlO9x99BI1q+czmfw8I7dIg61SXKEmGH0BgHm4wYABNINRL043s2VOB0Jmy+lME76vlk0kLwkf5G0O3+Z+FYxiLz8q/vX15uXqN+9dw/wzCBmtScz0Sy3cg9NFLNY6woYgx+rJnTw2CKRupvKuWTyta888BVwgSwl5ebk9wsn7r54dt6rqjFoRhAiBy+N+EPgWA0VH5z4+Nrkl3B0reSxDYifplB9dkHOqDNyDYqeuTY3G8Hug9XMuePTUIVp5elyGW76rlH+sWC9w1Ok49Ph93svnWz4oZACQrTR0ISwCRm/C8kLXsdBdwIxjHQagtrni4OzTN1pXru1MgCsSIi7gCodr291CSVtSjHQMoLMqePfG8AoHjBPD8+ftq+exj8c+T8J6EGtfjINRv/cxYrGfaHgQgt1WBYLrIdcsyeVbIWnZWiGik0dSOyn9dE25vBRAPuYinY+utY1o80LKnSMRDP9PIru7wUM8ea+PQ0hrV8sPOsdX4Ka/aQQutQuwRJxtv/YwwgB0Ic0svgKUqEJZwKwhkFbp+OCyyZDTK3XAjHkwjMUGJMnbx3GE/HPlJVGikMU2jqV4PVLXsTKn8c/Kvnn41OsGeFvZ19S1QR58nRYnys51gfz1dfcrJ+q1Lq8ywF+Spb07d5IZmuO4lUWez8y3tjGmG8/7Enehk10/cvF8PlDEQTgUIpDVDogqEAhOKqKvQrSHCBQBfPHBdoL87AMLqWTEwBtIUiS0Hqlp214D5aRDuH8Tc+3wnOPh3IGzl1NlLFzwhrNjnURAECXfPj2JauP+Ek/Vbl1bpqJ3MLPEgAqYc70Zcc//slFoOJEApB4YA4FYgMABsRSCE6FBEXYVujdQsAd/2EIoHm0WOjubC1/pAuUZkLBLM6SHU7AiGHKhq2UnhR0CQk4FouPuQ/7qXqk6NrqFxF9rQ4ilxYx8FQZD6K38QTYuraeGIk/Kt11bpQN+JkSxGQFc8sHqAUyDumgnmOrC2fWTCeNPy0JMDVgk49h6EIWAqAsHbzwh1Fbq1oBQYMEBO8YA95CZQ0oqw3Q0UKJgjm04jXNcDc3hS+FEQ5GTw8n+Sg+93Y4ok4eX/Xg5OC03N8q3XVunAgh58bgB998AA9Bxz4dd0N3ADl0u402mCQg7IPYLqGWG93yPUVeh2Z9bFgFsJQoGZDui/QfBRMEZevIYpByoQ9M/sEa6eHsVkIIx9ecwfr77xHUpXr/peBBFiWnh8uvqzk/Vbl1ZVIBTwuZAgDIBNXl3/CPcDLtdIhZHDaqABQoiYikAYA/nY0sq6Ct0HEBYJCtvFkiUwqM97B1OLlsM3IExoaTmikU198Sf5wtNcePoifb761req1QpfBL25oPcPTsq3vpFWfQDB8hFZuyU1hl+f9xHcLrngWxBMaweC6QN9VSCwByACNrIKXQMEzCJgTB/IgVirz/s1kHWSaQ1CVcuOBgDXxfaw/NpO6bKYeb8pCFLx69p11UT4oGb51qVVTRCSRNhbAnEKjOvzbqeIOmHUrQccF2lmz4AIgGcpA8HapgASXVah253Z6DcIQDok7aLqYlifdwYu4PqSDFnLjuMJgKgJwmEnXzm4PetuHwX3AoldzGOT44NOyrcurdIB5w0IInyN7EfC0erZEi5pJABC/feAD0T6DEA026q91tAdd/9QhW6NqW5WUNpyvpehVc/IkLXs6IxNrSn/8Nx6dXd79v1/Cu4OvLs6uLI1nZRvvWmV3EGMx5W9ltnwTRjfeKzR7pqm9S2uPkoQeGYADf++9I5gBfcLS6JPcnI38Z8XPwAEaZ2CHAE1uRgS68sBoTs2z5cvv3opibs7Fa8ivwJH4OdCG4+ti78xRf4YoyKu8lwJcfJHsYSq4geAICcDFfHwSp08VjAtxC0I3zOh9D7/9Su//6aJuy0IyuL2MX9+zh9vWxA+C0L3Z9Yjesofxc9UTz+y7lP3K0DodH9ihbIrsSyI5UHJpkS9k18Aws+sWXiX38n/URRQGy0In90pXsmJ4WJBaJcGuTmQW4VLXRrazWL1dUF+eWg3i5f69fFFLgjVIvFyoV8fWxDu8oe3PzDeXSYILQj1RYb60aWB0IIg54CXNyHnhwsDoQXhPv8Q95cHQgvC7cPjPvJcHjWnhBaEq9t/Id+y6oMDzzjW9wJBffHh7+Dk7dVpINyJZJJT5fcjsxI76zT1BFy4RQvC/9rJ+9fzehoID7m8VewU+ahkb3FAvu1tWcf1qgVBrZPyVrn84TQQ5F89354kH0OSi/SQ/HdRzL4TCA8PqkFQ7+Tts/xsnwiCTN6TS0RDvhleh9FE7yWuZ5Pe1Krkh5lD+tmsw7qKZV28crolg2mSdUxOU3cSkqM8ilfavpxlU/6PDfVONk7lSSA0MWrKHyMKRq8iRktsyWm+l2+4Pg2Mwg7rKpayeCXTHumvh8vI42iSbPu8QThaYb4vZ3kpIKh3sjm5HwfhTfzK38XDcyXf0nXdrORvSR/6u5pzfWgrGLMpw05dxVIWr6zki/Dy/YQWphbpu9oYo0taGhQ7KT7Lfz6z/xYEE0BWF5xbRyTz4q18LU5cXciXVSwNDN7Id/qreTzZy888kiOYY5SXtFlU5eQZIBxfGqzNZtN9L3/yTj4NrCjkyyqWJcrf8rtJ5q/zUMr3SW6hXxYI6p08vjScsVn8o3wO7Z18WcWyLl4p5PcxJj0hP99XRaUH+8JAUO/kGZvFBkbH5M+LWr4sRCerWNbFK4X8GxTlCiG5dsuB3Ydv9KKCLQgKnPy3Xx8bf3VEfpxqTfl1FUtZvJJZj1YBTJYZaaSIjF05S8+R8i9rs6jeSfnZ/sqfmB3n4KhpvyteKcJeVMf27jnNtCnjwr4+qndS/sSs4KLTWdGCcHoouOikXn77E3N7P0J70akFoQWhBaEFoQVBYZ/lC+hn3YLwzaqqqQahrY/w/essKnGyrY/wTSuvKk+CbesjfM9azG19BMXyWxDa+gg/AIS2PsIJ+n8SCG19hDPih4NAdXFxILQgtCCc36/asqz64OMzTrcF4a8A4fx+1QGqFpBWDp/vIkRgRrhuQfhLQDi9X3XfG7wFoQJgiyYIMwSmi1GjmXULwncF4fR+1RmG70CAQTrpIRC42DSaWbcgnBMLHg5NH++e6rJ7jqkH+lXLjtTaOnbTOYtwmMdW1Z3aCl3EoSE6MmdzewfCzGIPAgQ5SGOapS4ChuGYwTRO44BVM+v6Jap/5BHNapy0N+bGksfOwvq2IPRxwwPh+C6AIWknvUg/B4Q/9KtGn3PAdQvGAGLZnRoirldAAvgMkAN903VD+JSDYwApEFhAyQJZBAyqZtbyJap/5BHNipzsAIimY4qYd5Lg24EgM/iNSmQjtNztlYNgQ/qJM5tYZ5j6oV+1bEBtuygWdpcxQt2U3antDCN716H0BgkDzHwkPuYhfE0OFkhMK9+DsFnQzrGsmlnLl6j+kUc0K3KyE5eDdeIOSQ4wCFz960HYBjwen8zgX8uVuuuOWGJwhqkH+1WzQKEDJUnG2LLuTr3bI5jAZBrCFSA4GZA5Ifx6cAKfnO1BWCy9aYp1tUeoXyL+Y9NS5U52QuFinFXJUVbifz0IhUcZdVb+MI/ym92Am/WsfZr+uwz+8UQn9U6aeRty21vHbm6QcSiJSG0y9s4A4XC/an8Hgi5BqLtT70DQAe/1QU+AwCEwYgi/HoyxqkFwEsR+gqACoX6JIyAodLICgUOMqOOaXLuOQhB+Z+Wnwc0EJm9QDOcIqjT99xn8JcZ00mTZzxKNK8TbdTqhjR6rCD2SveiMjdfBftUCBAeY0+pWIMju1MywpA0x5Gg7EOhNKUCoB6cIbSfFUoBwAyzsHNuqmXX9EkdAUOekBMHGioGrkQYGXwtCP8siZFlAvs3Kl9mZYWKRiccxRmxk8Av5W5TkAEOuXFP8oaXLOjCWu9zxbP57EA71q5atyZFk0+qsye7U7MBNhgUw6UT9CgRyBwLl4BbIMmAtQDCAJAWWVTNrW77EERAUOrkHgW7BYkJSc5dfC4I5HIaT4VAnP2Tlp3NmbhzHbofVQJ3BL+XPXZvUsOQqJbmF48gZYYERBcbGGSA0+1XXIHRDAB3G6LPuTs1hCgSOByARIIQShDnloFYA0RK+AIFzIAzqZtbyJeIjfdnVObkHwcGK0w5JZnNVS0MzK3+BHtNO+Rp6Jf9NBr+UL1R3sa7k9+Ewm3EX3T0I5b8E4Ui/6sV48aE7tT12hHPjLptRDy50q65zaDusjvVN8yWOaFbjpNwjDKtVlokyEJpZ+SOMGE6sOsG3kcEv5AfQq/1MLb+HPkVoCEgOoP+Uq4+qnZTfGmKNnjiyovWXg2DbUv7vrPyePkgSTQyMxz1zJ7+RwS/kd6NJ2Y8z+7d8O4E/MIKSSUFyGWk/BQTlTnby8nqdpOV+y23iRuEPSr+z8gHMzP1AbOzkNzL4hXwOMiAxyLWQP4JDLooIcLcsEovsTPlTQFDuZAdA5pkkBzAEGwuFIMis/DGu9YUc2B18zODfx6b7wQNzo5EDlOxidCEgfIGTdlf+/+1sTv4/e/fBpaiyxAH8zdmiewQtgZEgQiOgYMDN8ft/sWcz9uou88K912Zgqf9Gw4bh/I6NWFW9MF7jErNk+w8zFRnfrh5HAEHvkZQ5eMcCioFC4KZdQXCPg0oQZsIJXf4aEB7TGf/H2bMT1Sze5UjySXqaja8wpT8tb1SYMo5mkV435RCEPoUgEIQRQXgDbNwt5oNs5ZdH8s4Q5EiK4Q+dGNlwD3kk7w3h4c3wx9CMcNyPPJL3hSDHVo1wMJUGCB0fyTtAGEAGCaHTEAQNIQgEgSAQBIJAEErWEYRv3whCnyHkTkcQgoAg9BCC2nAZbbskCCOGoJoMa89+6mhp+E4Q7gphIvsDLdVKyJ3EiZZ+vG7aAx0/85bzx3bjoNp8WT595TmoNlzmaycTdLI4RAgYrQ77+aNqJeQhuKcMoqd4lTU39i5UrcbB6+bLIThJDtWlyZCnEPtgEoT+p7XPcg3BbSth021dQMX5fMV5uJlyvl63GwfV5ss8XEz5NMrV0rCNHmeeSxD6n9Y+y1t7dttKyGUR50TiqGze3OBu1G4cVJsvPz9jkV0gzKIsCBbejCD0Pq19lt3ol1bCFyBky3bjoNp8+fkZhoIQg30OJPeG8C3oJPuvIz5HqGBy20rYhjCzjXbjoNp8+QaCkGakhmm4uDeEoKP8+DpeCEc7DNLqqFoJf4OwSFMHinbjoNp8+QpBNhlOoH62Zd0dAnYQJWGcEHgcASx/bpXMw+0tBACIEv5C46DafDncXiCYEXiujY0tOAwUQiEljBUCn1ps+h+2Sg5dy5r+hxZM/O35s9vbA4VQviyBriyGLteQ/kLARgJBIAgvSyAI1nFkEJQEgtDKmCCo7AkCQWgydAgEoUQZhj/D8DYla9/dzvAhEIRljmguIcRLEoEyruc3DkI7QJlyGRMErRBmzGLT14EQ54hYxYiuSAt8DovqInMRc/BRZu1dHjmsGCJB0JYEzlnVmiGUrd/J7Db4HCdHlXpV1nCBUN4uCcxLNEKgmkUfYjMWUGiCIKrQc/0QMobnbA8Le+UjFht7OS93kRe6mD9h7nlhLhji3MVse1pCJIIc8tBeWJiLlOUrbx2g42iEQDWLPjDOJ1BpggAi8GG539sJnuNAVWQR4joLfK9K8zAwcTFHc2EEhV0jrurSi/dLiDZBDrC2YYdrMJ9AuOsUnyKNEKhmsYFQQKILQoLoVYiiaiA4iDFYEygQ80WzNEgI6LiIzgYD20phgpelYYsHyCWEHYi4RCzA0geBahZ9CNI6ch51QTghrmrE9UGdC5gw8aFEPCx/hRCAuTUwgKOC4GMCjoQwCQHCCaaQ6oNANYs+nONVnUI4gSV/f4VguIgotqEvH8UanF8gYBkLmKNJrwg6axZ9sHCyhZ1+CIeTgnCMcsuPEnyKrPTnKwLWkcfwCHvcg5fvbyD4xmEjb3mlPghUs+iD/DtDoR1C6eUXCBaeVgAOQzOC5fUVgUUOIoo5liFAdQNhZ4NnMHQN1ASBahYVhMelof+C0rHEayZH+TOb3NxneTE2pw6IqYW3YSlDLCNfHwSqWZz5EJunBexf/UOnwghLySGq8cUcwlIfBKpZNBM4Z73nrw5htylQJtngSynDAnVCoJrFGTs+9upj6PL/vpsgUKkaQSAIBIFqFgkClaoRBIJAEIYNocsQBA0ZVFu8yneCcIccU4smphAEfwUADkEY+5zFHWT7wg9GDoFqFie2M6VZzFSzyHdw5ASBaha5s+QEgWoWORcLgnAO1Swa9IogQzWLW7AIAtUscm4CvWvodz50U7PIXVgkZvz0NyB8IAj68/BRvHvbRc0in9Yref9fhvD2nfj4QBA058N7IcSnh47mLDIL+V+F8PBJCPH+A0HQms+iyfsvvS1V+yKlnvOZIGhdFlTk8tA/CHJZUNG1PBAEuSyoyOWhhzWLcllQ0bU8EITPQkUtD30rTFHLgspngqB1WbguD72CcF0W2svDoCAMML2CIIaXFyG8Hx8EgvDpX/8rtDRMmWXNNC8NlAGcLPoAYIu6byeLlNbbR+1zFpOiziDv29tHSvuCkv45i1MXgp5dUKK0LzHrn7PI0TP6eImZoj500l6zeIHAjbCXHzpR1MfQumsWFYTc7unH0JQPndQsXl8RNBSmUAY3ZxE95y9AoPypcxanLpgEYfRzFos6gx0nCOOes+gDgLeIOUEY+ZzFaXmUf5cGCBQar0chCBSas0ihYVoUgjDUfAt6n/3XFgTG+xH250AIBpAfv0kAMPohgRl/EgTsedoSoD/pEgJBKKQEgkAQSimBlgaCgI0EOlkkCM8S6O0jQVASxgyBIKjsCQJBaDJqCARBpQsIBIGViFgyVDd6EKtERNYpBIJQ/Ju9M1hyk1fa8KahDdivARAGAWBgEAbw+v/v/8qOhSH2xJMkc74zqdRnPwsJFFVv8hSaMm8XbqywTymExhvwI6YCf4oiBw6J849E2GAe7zNHJv+U7ZbfobZPJYItClUSGS0uZMLCjwgSfDVO5cxukgGoY/2PRDDkjjlwKd3yQiMU/wwK3nuRBE92NAA9hZgxfADqn4mgfr3yo1WbZg/9lBwgEuZ/KcLpzMxdveGd8JozL+wSnz8hgrbIeiYRrMJoEhKFDcBxD7AqIXwgSCjOcK79VNSA2SZCJkATurIFir3UxuDQa8ZlwoWxllSYl1EYFlB0sfCjmCoT7alw4zPQvLnJXqEdQjeNbgWDmI5lk1AcKyh5cjvAFNFPRJiC3/gfdejM35iE+pwI28R/KhEobmKSb1qEXCi0sW336KlrPKFy8poT9WhlZ9cJzMRrJspAb1mJC0asaZYJF7p0KnM9NkUIUHGIKOl7N4dHkW1IE8fqEIkOHnVNJW8FkyxL/XGi/ABkZHkFgMr/iQi1xwv3Pc7irefySMlx4M7jc3y5ao8lMxsDxzWz5QkRjg/d0LzpjjLWIuSFm+637IRTEm8HF88lAjIyoBmOwElGCvCTvu+ozIUJJQLI+RmBnqa+lwMow8zoaNQy4ULYruOZLFAOiA4oOngeUFJjUQPU4XybkbMW1BvrajkajAq93taGNxEO/3eN0jyKcNfj7PpZRbY5kTc13CZsDeRPjeszO5SNlDF7Sdbvdw/d0OyTlwUU8JnqrL3MJaVDxDYdnlSEtgJMX6QZjLS64OQCQNyZlM8iTKRXc9AZMzFpDssEYN4IpceSmnlfOgHHAV4NOHSOSAFDMt/aZN0X3IdXERw3qULygaG4E+H/70WI0lRQmgasufU4+8w76V2f8VoEdqhnrsWOO7E7k8McFmDmh25oRfvr0RAmW+bE45JyZt643ZOKsH/To1mnqCtoFhEgJqBLcCYHmlUEZWrWSSOCdYyE+l6EiMq5glevItwXXEUI0iiKaqn0wg+OBifLwmOWWay59TjnzOwV34tgU8RvNU+0Y85c2Y780A1t0+EqQurGcewaXFLDF9L2SUWYJNCXpi+Q02SW2TcRqsKykwSj9JxxUosImt06LRhJY+bKS+wm9PBOhGrsizeMsnYima8iLAVXERzKLfPYArBI7/mtvxFuPc4NM4cPInARjnTggDZaob2U40M3dEPNVQRpNBesVYTkWUUoyYZH5E5A6xLVyKUWIYCdkLsXwDklKqybCA9YBVFiOSFRbL8XgYjeymsFz1xEcO4LnkIgJDeiBhcqQ6XTp0QYadBPc4+ZunciRLSXG85pZE1J0UM3tKPVcajj8LhlzVWErRie9V1D0QJOaeKCskzcYZlQ8+zg5zjWPH6/zavLZckasfJY0DKxchbjT0TY7b4XgQ0RNQb1zHFoHe5E2EnXZy719XCw9tQ/dENvC9k3IXUckV+We2cRwaHzs4oQCQtfg1fjc6hj+3u/LL7rcRaBXnEpXkQ48IU9NcxbseddTET19rEbukyIPL/lua06thcRIlLPKgK8Dl9DO+BzHArz0z8xY+l+Nsct31En+tZPN8ymhQ+7obcjeLuZ26oVr4QGP60ICn8N6n/09nHXu52eLYr4UzTU/ItEeOURJip2rNlLxZ9gG/v8LxLhJYJpb3hmk235M5x3LxF+xSuh9BJBOXiPOS6z+RLheUQYa0HSV7jj5EGTF0n2EuEZRGgjAJWIyo5q3BHTCMCU05Ca/3IRXiKo6ysH2DRpJdxxXQQOrgwATKkyRf7XirCxzIc1a8MzOzymE18inL1K9Es+qTESWVnQd+k5dNP43M3xsZLybxEj1G/eG4CqBTzvLxVh57tEcf/dosh4pjUe04kvEXLyz+OSTyqDpk9bWNTaZ6dJ/IPTxtDcIkYwRZeTDSUyIJB/nQj9SY8VtU1UUMb35GSw5kCHD9KJLxHELZ8EQHk1ugRYjga/gCY9rREjRK6j0hYlWUBDzh8TYQp+/9MsDQ3MbCbxlu8IJY3zbHyYTnyJAKz5pLKSwq1heN9EGKTSdtC0BgpQiaqSqTrQCJRU4kv4RWaxlnu2DCkMh839MU32m/XTLnoI2b9mDzuybwFHdiiY/bCoZ/4wnfgSYc0nXVxA7aMOv4nQUwYgInsVwaJTFAV01k7MAYM/L8KJwqCBLKYgDVkZU1ZTtn7a5fpplipmjU3ZLeDIJ7Ezkq0OrW/443TiS4Q1n3QMy7P0EVFgNiUqb7QQytzKpYdVhCFRAI7eSP1yrHy5CI+ZRTBPZDPv3Q1f2LkDT3S4HQ1FyBqHgm8BR96mPmfUMNfHD9OJLxEksOaTMkmJb0DVRGJCR9Ri9FwStbmK4BR7XAjEqC98A1/DrzOLLcVxLAlsBfvW7eavtqwi3D8R1oAj9zQcerdmroyHdOJLhJU1n6QcQAEw5zvHuf6LwgcMCZSM8MePhlUE0Wi2mfu2H9yAfck3EWrX5AsR2bc4k0eu65ILDudCyX/YO48t1XEoik6ufZ1knAMZRJGZ9/9/WWNT6n5ZE7HqyTq7svFwV97rCCIYIp7fr93xy0QoKeaBXZewyO7qaJfX0SztWKuLrg/+E+GYlWOaeOe8UnUiRDDCatvJ9E3om0W/Xrdh0/CeGrmjUh3t8jqahXdUtMsDLf8PHMvXF4n1lmd1oupEiGCE4zF9F/pmkdueqD5x3FG2zz/U0S6vo1k4KIaPLt8EjmuPB0oKW4r+rxMhgv09ggoVfcFJ8P/RLiIWqkn8NWLxoepEiOB0mHKtb5IkRHBeBLHOu4IhAlK1cPMQEAEifAIRIAJEsAeI4PZRPop/IAJQGG4W01ucolm0FmPNYk5PDhs0i5ZirFn0uigq60WCZtFOjDWLXsXMV4rRLNqJsWZxEGF4AM2inRhrFr11GBXZHc2ipRhrFj16sm7RLFqKsWbRq8RRHrINmkU7MdYsjj8jhHRCs2gnZppFJYKkBs2inZhqFtnrInlf9Ec0i3Ziqllkj4iyfcyMZtFKjDWLyfHmJ2gWrQXNIkCzCBRoFgHCFAARAEQAEOHtoFlU1zbH4a3PPkRwtlnkdLhGS2bRz+oQIrjaLAbrbCbb8sZc9Olhm0AER5vFq9LCz1YsqYUIjjaLXaWMmAvmLocIbjaLgmb8YgxTZnUCEZxsFkMqeSQZa8UlxRDByWYxVV8RjrQaH4oggpvN4uLAI/6nCBIiuNkszqjhgYDK8Y4QIrjZLIr+eS0qJfd7Zj7VAURws1nk474myu6v84K9HUMEN5vF8Y5bwNySZJ9WEMH1/z4m6x1/LAKI4LoIHGUnahkioEe4+A+GCO8HYQqACAAiAIgA7GkWxS2+Jer99IhCydVm0SOierf5/3BoiODqzqJsr322ZO3Q4vRFwM6i3y2EfmgRIkx+Z5GXtNIPLUKESe8sjiIIOuuHFiHCpHcWX9eyvX5oESJMe2eRn6R01g8tQoTJ7yzykpb6oUWIMPmdRb/rAv3QIkSY9M7iWl6u/VyyfmgRIkx9Z3GRx6wfWpy0CGgWhR8f9YdDQ4S/X4QvH1qECNMRQT+0OH0RIIJ+aPHrRQAIUwBE0PNve3BgAzAQwkAMSB7237hjgKqzIffc0FZgTfn1XNDPFViT8hXKwJ4s+QJVBgAAAAAAv/cBd2PdpFx5LEIAAAAASUVORK5CYII=;" vertex="1" parent="1">
          <mxGeometry x="140" y="220" width="520" height="430" as="geometry" />
        </mxCell>
      </root>
    </mxGraphModel>
  </diagram>
</mxfile>
